<svg xmlns="http://www.w3.org/2000/svg" xmlns:graphite="https://graphite.art" viewBox="0 0 3640 2048" width="3640" height="2048"><defs><clipPath id="artboard-12169512976326724143"><rect x="0" y="0" width="3640" height="2048" /></clipPath></defs><g>
<rect fill="#ffffff" x="0" y="0" width="3640" height="2048"/>
<g clip-path="url(#artboard-12169512976326724143)">
	<g>
		<g>
			<g>
				<g>
					<path d="M1308.9334015995264,737.8665983378887 C1294.666734188795,743.8665986508131 1282.8000669032335,756.2665992975235 1274.800066486001,773.3332668542862 C1268.6667328327894,786.666600883007 1266.6667327284813,796.1332680433989 1266.6667327284813,813.0666022598743 C1266.6667327284813,836.6666034907103 1271.2000662982464,854.2666044086218 1284.0000669658184,880.2666057646275 C1284.0000669658184,880.2666057646275 1290.4000672996044,893.0666064321995 1290.4000672996044,893.0666064321995 C1290.4000672996044,893.0666064321995 1276.133399888873,899.7332734465599 1276.133399888873,899.7332734465599 C1221.4667303711176,925.5999414622784 1139.0667260736227,946.3999425470829 1061.3333886861801,953.9999429434538 C1019.733386516571,957.99994315207 972.5333840548992,959.1999432146549 926.400048315525,957.5999431312084 C846.9333775043488,954.6666096448898 799.8667083829641,949.9999427348375 681.8667022287846,933.3332751989365 C601.4666980355978,921.9999412745237 579.7333635687828,919.3332744687796 547.3333618789911,916.6666076630354 C398.8000207990408,904.6666070371866 282.2666813880205,927.1999415457249 195.60001020133495,984.9332778900862 C169.8666755259037,1001.9999454468489 146.400007635355,1022.6666131913662 126.80000661313534,1045.7332810610533 C112.2666725218296,1062.9332819581032 108.93333901464939,1072.5332824587822 114.93333932757378,1081.1999495774508 C119.06667287647724,1087.3332832306623 123.73333978652954,1090.5332833975554 129.73334009945393,1091.599950119853 C137.60000717639923,1092.799950182438 142.0000074058771,1089.9999500364065 152.6666746288538,1076.7999493479729 C163.6000085324049,1063.1999486386776 185.86667636036873,1041.066614151001 198.0000103265047,1031.8666136711836 C251.46667978167534,990.9332782030106 319.3333499878645,967.0666102916002 403.6000210493803,959.3332765549421 C430.66668912768364,956.9332764297724 488.40002547204494,956.5332764089108 518.0000270158052,958.6666098535061 C550.5333620458841,961.0666099786758 593.0666975975037,966.1332769095898 652.0000340044498,974.6666106879711 C756.0000394284725,989.9999448210001 807.0667087584734,996.3999451547861 858.0000447481871,1000.6666120439768 C1002.5333856195211,1012.6666126698256 1129.8667255938053,1001.4666120857 1236.0000644624233,967.3332769721746 C1259.466732352972,959.7332765758038 1297.200067654252,944.9332758039236 1310.1334016621113,938.133275449276 C1310.1334016621113,938.133275449276 1321.8667356073856,932.1332751363516 1321.8667356073856,932.1332751363516 C1321.8667356073856,932.1332751363516 1333.8667362332344,943.8666090816259 1333.8667362332344,943.8666090816259 C1340.5334032475948,950.266609415412 1353.466737255454,961.8666100203991 1362.6667377352715,969.5999437570572 C1390.0000724941492,992.6666116267443 1403.33340652287,1008.3999457806349 1413.8667404055595,1029.3332802057266 C1420.8000741004944,1043.1999475955963 1423.2000742256641,1053.3332814574242 1422.400074183941,1065.333282083273 C1421.4667408019304,1077.3332827091217 1418.8000739961863,1082.66661632061 1398.9334062933922,1112.2666178643703 C1332.933402851224,1210.7999563366175 1272.266733020544,1325.8666290044785 1248.000065088272,1398.6666328012943 C1236.8000645041466,1432.399967893958 1231.6000642329454,1458.2666359096766 1231.4667308926582,1481.9999704807997 C1231.333397552371,1509.066638559103 1236.8000645041466,1525.733306095004 1250.2667318731546,1540.1333068460226 C1275.7333998680115,1567.3333082646132 1318.1334020793438,1559.4666411876678 1373.3334049582481,1517.33330565691 C1422.6667408645153,1479.59997035563 1503.8667450994253,1397.866632759571 1565.2000816315413,1323.9999622404575 C1585.2000826746225,1299.8666276484728 1584.6667493134737,1300.3999610096216 1579.8667490631342,1312.6666283160448 C1568.1334151178598,1343.0666299015284 1547.4667473733425,1408.2666333019733 1538.6667469143867,1441.999968394637 C1528.4000797122717,1481.7333038002253 1524.4000795036554,1516.799972295761 1528.4000797122717,1530.799973025918 C1533.2000799626112,1546.9333072006702 1544.6667472273111,1555.9999743402004 1560.6667480617762,1555.9999743402004 C1570.4000819027424,1555.9999743402004 1577.6000822782516,1552.9333075135946 1585.8667493760586,1545.3333071172237 C1596.0000832378864,1535.9999732971191 1599.8667501062155,1529.466639623046 1650.666752755642,1433.9999679774046 C1685.866754591465,1368.2666312158108 1715.7334228157997,1314.9332951009274 1757.7334250062704,1243.9999580681324 C1848.5334297418594,1090.1332833766937 1910.8000996559858,1001.7332787662745 1965.6001025140285,948.5332759916782 C1983.6001034528017,931.1999417543411 1991.2001038491726,925.5999414622784 1995.0667707175016,927.0666082054377 C1998.8001042455435,928.3999416083097 2000.6667710095644,941.8666089773178 2000.5334376692772,965.9999435693026 C2000.2667709887028,1009.9999458640814 1990.133437126875,1062.13328191638 1957.0667687356472,1187.9999551475048 C1914.133433163166,1351.8666303604841 1897.3334322869778,1430.6666344702244 1900.666765794158,1453.3333023190498 C1903.6000992804766,1473.4666367024183 1918.1334333717823,1483.5999705642462 1936.533434331417,1478.5333036333323 C1946.2667681723833,1475.866636827588 1956.1334353536367,1463.8666362017393 1978.000103160739,1428.6666343659163 C2079.4667751193047,1264.9332924932241 2119.6001105457544,1208.2666228711605 2170.0001131743193,1157.9999535828829 C2186.0001140087843,1141.8666194081306 2201.3334481418133,1130.2666188031435 2205.2001150101423,1130.9332855045795 C2209.8667819201946,1131.86661888659 2211.333448663354,1138.5332859009504 2211.2001153230667,1157.9999535828829 C2211.0667819827795,1194.1332888007164 2206.400115072727,1217.9999567121267 2181.6001137793064,1308.6666281074286 C2158.8001125901937,1391.5999657660723 2149.333445429802,1434.6666346788406 2146.4001119434834,1466.933303028345 C2142.1334450542927,1512.5333054065704 2154.9334457218647,1538.7999734431505 2182.8001138418913,1542.1333069503307 C2202.0001148432493,1544.3999737352133 2225.2001160532236,1529.5999729633331 2262.666784673929,1491.0666376203299 C2290.2667861133814,1462.7999694794416 2312.6667872816324,1437.3333014845848 2343.866788908839,1398.6666328012943 C2365.466790035367,1371.8666314035654 2376.1334572583437,1360.799964159727 2395.3334582597017,1344.9332966655493 C2458.800128236413,1292.6666272729635 2533.600132137537,1266.799959257245 2641.3334710896015,1259.8666255623102 C2680.2668064534664,1257.4666254371405 2741.7334763258696,1259.9999589025974 2802.000146135688,1266.799959257245 C2825.733480706811,1269.4666260629892 2911.466818511486,1280.3999599665403 2966.6668213903904,1287.9999603629112 C3041.333491951227,1298.133294224739 3092.0001612603664,1301.9999610930681 3136.0001635551453,1300.9332943707705 C3171.066832050681,1299.99996098876 3184.8001661002636,1298.7999609261751 3214.6668343245983,1293.8666273355484 C3285.8668380379677,1282.3999600708485 3345.0668411254883,1256.7999587357044 3396.666843816638,1215.0666232258081 C3412.666844651103,1202.133289217949 3432.8001790344715,1181.733288154006 3438.5335126668215,1172.799954354763 C3446.400179743767,1160.1332870274782 3442.2668461948633,1146.3999529778957 3429.200178846717,1142.666619449854 C3421.2001784294844,1140.3999526649714 3415.6001781374216,1143.0666194707155 3408.4001777619123,1152.3999532908201 C3367.0668422728777,1206.7999561280012 3296.1335052400827,1243.9999580681324 3208.4001673310995,1257.3332920968533 C3162.000164911151,1264.3999591320753 3105.866828650236,1264.133292451501 3038.666825145483,1256.53329205513 C3009.20015694201,1253.1999585479498 2958.800154313445,1245.8666248321533 2898.666817843914,1235.9999576509 C2785.2001452594995,1217.466623350978 2732.533475846052,1211.9999563992023 2665.200139001012,1211.9999563992023 C2623.866803511977,1211.9999563992023 2602.8001357465982,1213.3332898020744 2570.000134035945,1217.9999567121267 C2509.4667975455523,1226.6666238307953 2448.9334610551596,1248.9332916587591 2402.000125274062,1279.8666266053915 C2365.466790035367,1303.866627857089 2344.8001222908497,1323.4666288793087 2297.600119829178,1378.3999650776386 C2246.2667838186026,1438.2666348665953 2221.733449205756,1465.0666362643242 2207.7334484755993,1476.9333035498857 C2201.4667814821005,1482.266637161374 2196.000114530325,1486.666637390852 2195.466781169176,1486.666637390852 C2194.133447766304,1486.666637390852 2194.5334477871656,1474.1333034038544 2196.666781231761,1458.3999692499638 C2199.4667813777924,1436.9333014637232 2205.600115031004,1410.9333001077175 2225.333449393511,1337.3332962691784 C2250.933450728655,1241.199957922101 2254.133450895548,1227.4666238725185 2258.000117763877,1197.733288988471 C2260.666784569621,1177.4666212648153 2260.666784569621,1144.2666195333004 2257.8667844235897,1130.9332855045795 C2251.3334507495165,1098.666617155075 2231.6001163870096,1081.333282917738 2203.4667815864086,1083.0666163414717 C2180.4001137167215,1084.3999497443438 2160.0001126527786,1097.4666170924902 2123.733444094658,1134.2666190117598 C2088.2667755782604,1170.1332875490189 2057.0667739510536,1211.733289718628 1998.0001042038202,1302.2666277736425 C1965.866769194603,1351.4666303396225 1969.066769361496,1346.9332967698574 1970.1334360837936,1341.3332964777946 C1972.4001028686762,1327.8666291087866 1983.4667701125145,1283.1999601125717 1998.2667708843946,1227.9999572336674 C2037.3334395885468,1081.999949619174 2047.733440130949,1031.466613650322 2050.133440256119,977.3332774937153 C2052.0001070201397,935.3332753032446 2043.200106561184,902.1332735717297 2026.1334390044212,887.1999394595623 C2016.2667718231678,878.5332723408937 2007.466771364212,875.5999388545752 1993.2001039534807,876.2666055560112 C1983.6001034528017,876.6666055768728 1980.4001032859087,877.4666056185961 1971.8667695075274,881.4666058272123 C1929.8667673170567,901.5999402105808 1863.4667638540268,979.5999442785978 1792.4000934809446,1092.6666168421507 C1747.3334244638681,1164.533287256956 1709.2000891417265,1231.3332907408476 1630.6667517125607,1377.333298355341 C1602.5334169119596,1429.5999677479267 1586.4000827372074,1458.9333026111126 1584.266749292612,1461.9999694377184 C1582.5334158688784,1464.3999695628881 1582.5334158688784,1464.266636222601 1583.3334159106016,1459.9999693334103 C1586.4000827372074,1443.5999684780836 1591.866749688983,1421.5999673306942 1598.0000833421946,1400.1332995444536 C1606.533417120576,1370.399964660406 1643.066752359271,1259.066625520587 1659.3334198743105,1213.3332898020744 C1695.7334217727184,1111.0666178017855 1718.6667563021183,1043.4666142761707 1718.6667563021183,1038.9332807064056 C1718.6667563021183,1033.3332804143429 1714.9334227740765,1026.399946719408 1710.2667558640242,1023.3332798928022 C1702.533422127366,1018.3999463021755 1690.5334215015173,1020.1332797259092 1686.1334212720394,1026.9332800805569 C1684.9334212094545,1028.6666135042906 1680.5334209799767,1039.9999474287033 1676.1334207504988,1051.999948054552 C1671.866753861308,1064.133282020688 1659.600086554885,1097.0666170716286 1648.9334193319082,1125.3332852125168 C1638.2667521089315,1153.599953353405 1627.8667515665293,1181.9999548345804 1625.8667514622211,1188.5332885086536 C1622.1334179341793,1199.8666224330664 1621.333417892456,1201.1999558359385 1603.46675029397,1222.5332902818918 C1494.5334112793207,1352.5332970619202 1406.1334066689014,1442.6666350960732 1343.6000700742006,1487.1999707520008 C1316.8000686764717,1506.3999717533588 1293.4667341262102,1514.799972191453 1285.3334003686905,1508.2666385173798 C1281.7334001809359,1505.3333050310612 1278.66673335433,1493.066637724638 1278.66673335433,1480.7999704182148 C1278.66673335433,1460.6666360348463 1290.800067320466,1416.6666337400675 1306.9334014952183,1378.5332984179258 C1332.6667361706495,1317.4666285663843 1385.333405584097,1223.1999569833279 1438.1334083378315,1143.8666195124388 C1450.1334089636803,1125.8666185736656 1461.466742888093,1107.599950954318 1463.4667429924011,1103.1999507248402 C1469.3334099650383,1089.9999500364065 1472.0000767707825,1076.93328268826 1472.0000767707825,1062.13328191638 C1472.0000767707825,1035.0666138380766 1462.133409589529,1009.0666124820709 1441.8667418658733,982.3999444246292 C1432.2667413651943,969.7332770973444 1403.7334065437317,941.8666089773178 1388.000072389841,929.7332750111818 C1380.266738653183,923.8666080385447 1370.000071451068,914.7999408990145 1365.0667378604412,909.8666073083878 C1365.0667378604412,909.8666073083878 1356.1334040611982,900.6666068285704 1356.1334040611982,900.6666068285704 C1356.1334040611982,900.6666068285704 1360.0000709295273,888.7999395430088 1360.0000709295273,888.7999395430088 C1375.200071722269,842.266603782773 1376.0000717639923,784.6666007786989 1361.733404353261,758.3999327421188 C1353.466737255454,743.1999319493771 1342.4000700116158,735.8665982335806 1326.6667358577251,735.0665981918573 C1318.4000687599182,734.6665981709957 1315.3334019333124,735.0665981918573 1308.9334015995264,737.8665983378887 C1308.9334015995264,737.8665983378887 1308.9334015995264,737.8665983378887 1308.9334015995264,737.8665983378887 ZM1327.200069218874,811.9999355375767 C1327.3334025591612,832.9332699626684 1325.2000691145658,851.9999376237392 1322.666735649109,851.9999376237392 C1320.6667355448008,851.9999376237392 1313.0667351484299,825.8666029274464 1312.4000684469938,816.5332691073418 C1311.3334017246962,803.7332684397697 1313.6000685095787,794.933267980814 1319.7334021627903,787.8666009455919 C1319.7334021627903,787.8666009455919 1324.5334024131298,782.2666006535292 1324.5334024131298,782.2666006535292 C1324.5334024131298,782.2666006535292 1325.866735816002,786.1332675218582 1325.866735816002,786.1332675218582 C1326.533402517438,788.2666009664536 1327.200069218874,799.8666015714407 1327.200069218874,811.9999355375767 C1327.200069218874,811.9999355375767 1327.200069218874,811.9999355375767 1327.200069218874,811.9999355375767 Z" fill="#000000"/>
				</g>
			</g>
		</g>
	</g>
</g></g></svg>